<?xml version="1.0" encoding="utf-8"?>
<!-- Generator: Adobe Illustrator 27.2.0, SVG Export Plug-In . SVG Version: 6.00 Build 0)  -->
<svg version="1.1" id="Layer_1" xmlns="http://www.w3.org/2000/svg" xmlns:xlink="http://www.w3.org/1999/xlink" x="0px" y="0px"
	 viewBox="0 0 510 510" style="enable-background:new 0 0 510 510;" xml:space="preserve">
<g>
	<path d="M473.62,288.32c0.08-0.14,0.16-0.29,0.22-0.44c0.02-0.04,0.05-0.09,0.06-0.13c0.02-0.04,0.03-0.08,0.04-0.12
		c0.06-0.15,0.11-0.29,0.16-0.44c0.02-0.08,0.05-0.15,0.07-0.23c0.01-0.03,0.02-0.06,0.03-0.1c0,0,0,0,0,0
		c0.04-0.16,0.07-0.32,0.09-0.48c0.01-0.04,0.02-0.08,0.02-0.12c0.01-0.07,0.01-0.14,0.02-0.2c0.01-0.07,0.01-0.15,0.02-0.22
		c0.01-0.1,0.02-0.19,0.02-0.29c0-0.07,0-0.14,0-0.21c0-0.07,0-0.15,0-0.22c0-0.04,0-0.08,0-0.12c0-0.06-0.01-0.12-0.02-0.17
		c-0.01-0.09-0.02-0.17-0.03-0.26c-0.01-0.08-0.02-0.16-0.03-0.24c-0.01-0.05-0.02-0.09-0.03-0.14c-0.01-0.05-0.02-0.1-0.03-0.16
		c-0.01-0.06-0.03-0.12-0.05-0.19c-0.05-0.18-0.1-0.35-0.17-0.52c-0.02-0.05-0.03-0.09-0.04-0.14L393.39,79.95
		c-0.01-0.02-0.01-0.04-0.02-0.05l0,0c0,0,0-0.01,0-0.01c-0.09-0.22-0.19-0.43-0.3-0.64c-0.01-0.02-0.02-0.05-0.03-0.07
		c0-0.01-0.01-0.02-0.02-0.02c-0.01-0.02-0.03-0.04-0.04-0.06c-0.03-0.05-0.06-0.1-0.09-0.15c-0.01-0.01-0.01-0.02-0.02-0.03
		c-0.07-0.11-0.14-0.2-0.21-0.31c-0.03-0.04-0.06-0.09-0.09-0.13c-0.04-0.05-0.08-0.1-0.12-0.15c-0.03-0.04-0.06-0.07-0.09-0.11
		c-0.02-0.03-0.04-0.05-0.07-0.08c-0.03-0.04-0.06-0.07-0.09-0.11c-0.03-0.03-0.05-0.06-0.08-0.08c-0.04-0.04-0.08-0.08-0.13-0.12
		c-0.1-0.1-0.2-0.19-0.3-0.28c-0.03-0.03-0.06-0.05-0.1-0.08c-0.04-0.03-0.07-0.06-0.11-0.09c-0.03-0.02-0.06-0.04-0.09-0.07
		c-0.13-0.1-0.27-0.19-0.41-0.28c-0.05-0.03-0.09-0.06-0.14-0.09c-0.02-0.01-0.03-0.02-0.05-0.03c-0.03-0.02-0.06-0.03-0.1-0.05
		c-0.01-0.01-0.02-0.01-0.04-0.02c-0.06-0.03-0.11-0.06-0.17-0.09c-0.08-0.04-0.17-0.09-0.26-0.13c-0.06-0.03-0.12-0.05-0.18-0.07
		c-0.1-0.04-0.19-0.08-0.29-0.12c-0.01,0-0.02-0.01-0.03-0.01c-0.02-0.01-0.04-0.01-0.06-0.02c-0.05-0.02-0.1-0.03-0.15-0.05
		c-0.06-0.02-0.12-0.03-0.18-0.05c-0.21-0.06-0.42-0.1-0.64-0.14c-0.02,0-0.04-0.01-0.06-0.01l-0.03,0c0,0,0,0,0,0l-0.01,0
		c-0.02,0-0.03,0-0.05-0.01L172.3,44.32c-0.02,0-0.04,0-0.06,0c-0.21-0.03-0.41-0.04-0.62-0.05c-0.04,0-0.08-0.01-0.12-0.01
		c-0.01,0-0.01,0-0.02,0c-0.02,0-0.03,0-0.05,0c-0.04,0-0.08,0-0.12,0.01c-0.25,0-0.51,0.02-0.75,0.06c-0.03,0-0.06,0.01-0.09,0.01
		c-0.43,0.07-0.84,0.18-1.24,0.34c0,0-0.01,0-0.01,0.01c-0.22,0.09-0.44,0.19-0.65,0.31c-0.03,0.01-0.05,0.03-0.08,0.04
		c-0.13,0.07-0.25,0.15-0.38,0.23c-0.03,0.02-0.06,0.04-0.08,0.06c-0.03,0.02-0.06,0.04-0.08,0.06c-0.04,0.03-0.08,0.05-0.12,0.08
		c-0.12,0.09-0.23,0.19-0.34,0.28c-0.05,0.04-0.1,0.09-0.15,0.13c-0.03,0.03-0.06,0.06-0.09,0.09c-0.13,0.13-0.25,0.27-0.37,0.41
		c-0.04,0.04-0.07,0.08-0.11,0.12c-0.01,0.01-0.02,0.02-0.03,0.03L30.96,217.98c-0.02,0.03-0.04,0.05-0.06,0.08
		c-0.04,0.05-0.07,0.09-0.1,0.14c-0.08,0.1-0.15,0.21-0.21,0.32c-0.05,0.07-0.09,0.14-0.13,0.22c-0.03,0.05-0.06,0.1-0.09,0.16
		c-0.01,0.02-0.02,0.04-0.03,0.05c-0.02,0.04-0.04,0.09-0.06,0.13c-0.02,0.04-0.04,0.07-0.05,0.11c-0.03,0.07-0.06,0.13-0.09,0.2
		c-0.06,0.14-0.1,0.28-0.15,0.42c-0.01,0.02-0.02,0.05-0.03,0.07c-0.01,0.03-0.02,0.06-0.03,0.1c-0.01,0.03-0.02,0.06-0.03,0.09
		c-0.01,0.02-0.01,0.04-0.02,0.07c-0.06,0.21-0.1,0.42-0.14,0.64c-0.01,0.03-0.01,0.06-0.02,0.1c0,0.02-0.01,0.04-0.01,0.06
		c-0.01,0.05-0.01,0.1-0.01,0.14c-0.01,0.09-0.02,0.17-0.03,0.26c0,0.05,0,0.11,0,0.16c0,0.09,0,0.18,0,0.27c0,0.01,0,0.03,0,0.04
		c0,0.05,0,0.09,0,0.14c0,0.02,0,0.05,0,0.07c0,0.02,0.01,0.05,0.01,0.07c0,0.05,0.01,0.1,0.01,0.14c0.01,0.09,0.01,0.17,0.03,0.26
		c0.01,0.11,0.03,0.22,0.05,0.33c0.01,0.06,0.02,0.12,0.04,0.18c0.01,0.04,0.01,0.08,0.02,0.12c0.01,0.03,0.01,0.06,0.02,0.08
		c0.06,0.23,0.13,0.47,0.22,0.69c0,0.01,0.01,0.02,0.01,0.03l80.6,203.3c0.02,0.06,0.06,0.11,0.08,0.17
		c0.06,0.14,0.12,0.29,0.19,0.43c0.01,0.02,0.03,0.04,0.04,0.06c0.02,0.03,0.03,0.07,0.05,0.1c0.04,0.07,0.08,0.13,0.12,0.19
		c0.07,0.12,0.15,0.24,0.23,0.35c0.04,0.05,0.07,0.1,0.11,0.15c0.04,0.06,0.09,0.11,0.14,0.17c0.07,0.09,0.15,0.17,0.23,0.26
		c0.06,0.07,0.12,0.13,0.19,0.19c0.04,0.04,0.09,0.09,0.13,0.13c0.07,0.07,0.15,0.13,0.22,0.19c0.08,0.07,0.16,0.13,0.25,0.2
		c0.12,0.09,0.23,0.17,0.35,0.25c0.09,0.06,0.17,0.11,0.26,0.16c0.06,0.04,0.13,0.07,0.19,0.11c0.07,0.04,0.14,0.07,0.22,0.1
		c0.09,0.04,0.17,0.08,0.26,0.12c0.08,0.04,0.17,0.07,0.26,0.1c0.09,0.03,0.17,0.06,0.26,0.09c0.06,0.02,0.13,0.04,0.19,0.06
		c0.11,0.03,0.23,0.05,0.34,0.08c0.09,0.02,0.18,0.04,0.27,0.06c0.04,0.01,0.08,0.02,0.13,0.03l216.36,31.85c0,0,0,0,0,0
		c0.02,0,0.04,0,0.06,0.01c0.27,0.04,0.54,0.06,0.8,0.06c0,0,0,0,0,0c0,0,0,0,0,0c0.01,0,0.01,0,0.02,0c0.22,0,0.44-0.01,0.65-0.04
		c0.05-0.01,0.09-0.02,0.14-0.02c0.05-0.01,0.11-0.01,0.16-0.02c0.05-0.01,0.09-0.02,0.14-0.03c0.07-0.01,0.15-0.02,0.22-0.04
		c0.09-0.02,0.17-0.05,0.25-0.07c0.02,0,0.03-0.01,0.05-0.01c0.07-0.02,0.15-0.04,0.22-0.06c0.04-0.01,0.08-0.02,0.12-0.03
		c0.01,0,0.02-0.01,0.02-0.01c0,0,0.01,0,0.01,0c0.07-0.02,0.13-0.06,0.2-0.09c0.13-0.05,0.26-0.1,0.38-0.16c0,0,0.01,0,0.01-0.01
		c0.01,0,0.02-0.01,0.02-0.01c0.08-0.04,0.15-0.08,0.22-0.12c0.11-0.06,0.22-0.11,0.33-0.18c0.01-0.01,0.03-0.02,0.04-0.03
		c0.04-0.02,0.07-0.05,0.11-0.07c0.06-0.04,0.11-0.08,0.16-0.12c0.08-0.06,0.16-0.11,0.24-0.17c0.01-0.01,0.03-0.02,0.04-0.04
		c0.07-0.06,0.13-0.12,0.2-0.18c0.06-0.05,0.11-0.1,0.17-0.15c0.03-0.03,0.07-0.06,0.1-0.09c0.01-0.01,0.03-0.03,0.04-0.04
		c0.08-0.08,0.15-0.17,0.23-0.26c0.04-0.05,0.09-0.1,0.14-0.15c0.02-0.02,0.04-0.04,0.06-0.06c0,0,0,0,0,0l135.76-171.45
		c0.14-0.18,0.27-0.36,0.39-0.55c0.01-0.02,0.02-0.04,0.04-0.06C473.55,288.44,473.58,288.38,473.62,288.32z M70,188.01l101.35-128
		l24.6,32.06L70,188.01z M44.81,222.28l150.73-114.8l-42.38,221.31l-98.17-96.51L44.81,222.28z M392.46,230.85L262.51,130.51
		L220.7,98.22l161.52-9.78l7.63,106.2L392.46,230.85z M164.9,331.28l43.54-227.36l45.31,34.99l133.67,103.22L164.9,331.28z
		 M169.82,342.23l220.07-88.17l-60.61,193.38L169.82,342.23z M402.84,252.88l56.61,34.14L348.05,427.7L402.84,252.88z
		 M405.16,240.26l-8.6-119.75l59.69,150.56L405.16,240.26z M329.65,79.61L207.2,87.02l-22-28.67l23.66,3.48L329.65,79.61z
		 M51.71,245.89l97.96,96.3l-0.93,1.92l-31.93,65.99L59.62,265.85L51.71,245.89z M159.36,349.71l147.41,97.26l-181.54-26.72
		L159.36,349.71z"/>
	<path d="M236.05,257.73l6.58-17.31c2.22-5.7,4.58-13.65,0.96-22.78c-4.84-12.21-17.87-17.84-30.37-12.88
		c-12.51,4.96-18.24,18.03-13.4,30.23l17.47-6.93c-1.02-2.58,0.11-5.21,2.7-6.24c2.48-0.98,5.11,0.15,6.14,2.73
		c1.73,4.37-0.33,10.47-1.55,14.05l-11.37,30.7l5.51,13.9l44.27-17.55l-6.37-16.08L236.05,257.73z"/>
	<path d="M256.44,228.63c8.3,20.94,25.26,30.99,41.34,24.61c16.08-6.37,21.55-25.31,13.25-46.25c-8.3-20.94-25.26-30.99-41.34-24.61
		S248.14,207.68,256.44,228.63z M276.22,198.85c5.76-2.28,12.8,3.89,17.24,15.1c4.45,11.22,3.55,20.53-2.21,22.81
		c-5.66,2.24-12.89-3.85-17.34-15.06C269.46,210.48,270.56,201.09,276.22,198.85z"/>
</g>
</svg>
