<?xml version="1.0" encoding="utf-8"?>
<!-- Generator: Adobe Illustrator 27.2.0, SVG Export Plug-In . SVG Version: 6.00 Build 0)  -->
<svg version="1.1" id="Layer_1" xmlns="http://www.w3.org/2000/svg" xmlns:xlink="http://www.w3.org/1999/xlink" x="0px" y="0px"
	 viewBox="0 0 510 510" style="enable-background:new 0 0 510 510;" xml:space="preserve">
<g>
	<path d="M501.39,218.15H463.5v-37.81c0-13.1-10.66-23.76-23.76-23.76c-5.43,0-10.44,1.84-14.45,4.92v-15.04
		c0-13.1-10.66-23.76-23.76-23.76c-8.08,0-15.22,4.05-19.52,10.23c-4.29-6.18-11.44-10.23-19.52-10.23
		c-13.1,0-23.76,10.66-23.76,23.76v71.68H173.91v-71.68c0-13.1-10.66-23.76-23.76-23.76c-8.08,0-15.22,4.05-19.52,10.23
		c-4.29-6.18-11.44-10.23-19.52-10.23c-13.1,0-23.76,10.66-23.76,23.76v14.31c-3.83-2.64-8.46-4.19-13.45-4.19
		c-13.1,0-23.76,10.66-23.76,23.76v37.81H10.61c-3.31,0-6,2.69-6,6v51.8c0,3.31,2.69,6,6,6h39.55v37.81
		c0,13.1,10.66,23.76,23.76,23.76c4.99,0,9.62-1.55,13.45-4.19v14.31c0,13.1,10.66,23.76,23.76,23.76c8.08,0,15.22-4.05,19.52-10.23
		c4.29,6.18,11.44,10.23,19.52,10.23c13.1,0,23.76-10.66,23.76-23.76v-71.68h164.83v71.68c0,13.1,10.66,23.76,23.76,23.76
		c8.08,0,15.22-4.05,19.52-10.23c4.29,6.18,11.44,10.23,19.52,10.23c13.1,0,23.76-10.66,23.76-23.76V338.6
		c4.01,3.08,9.02,4.92,14.45,4.92c13.1,0,23.76-10.66,23.76-23.76v-37.81h37.89c3.31,0,6-2.69,6-6v-51.8
		C507.39,220.84,504.7,218.15,501.39,218.15z M48.16,269.96H16.61v-39.8h31.55V269.96z M85.68,319.76c0,6.48-5.27,11.76-11.76,11.76
		s-11.76-5.27-11.76-11.76V180.35c0-6.48,5.27-11.76,11.76-11.76s11.76,5.27,11.76,11.76V319.76z M122.88,353.64
		c0,6.48-5.27,11.76-11.76,11.76c-6.48,0-11.76-5.27-11.76-11.76V146.47c0-6.48,5.27-11.76,11.76-11.76
		c6.48,0,11.76,5.27,11.76,11.76V353.64z M161.91,353.64c0,6.48-5.27,11.76-11.76,11.76c-6.48,0-11.76-5.27-11.76-11.76V146.47
		c0-6.48,5.27-11.76,11.76-11.76c6.48,0,11.76,5.27,11.76,11.76V353.64z M337.7,269.96H174.3v-39.8H337.7V269.96z M374.26,353.64
		c0,6.48-5.27,11.76-11.76,11.76c-6.48,0-11.76-5.27-11.76-11.76V146.47c0-6.48,5.27-11.76,11.76-11.76
		c6.48,0,11.76,5.27,11.76,11.76V353.64z M413.29,353.64c0,6.48-5.27,11.76-11.76,11.76c-6.48,0-11.76-5.27-11.76-11.76V146.47
		c0-6.48,5.27-11.76,11.76-11.76c6.48,0,11.76,5.27,11.76,11.76V353.64z M451.5,319.76c0,6.48-5.27,11.76-11.76,11.76
		c-6.48,0-11.76-5.27-11.76-11.76V180.35c0-6.48,5.27-11.76,11.76-11.76h0c6.48,0,11.76,5.27,11.76,11.76V319.76z M495.39,269.96
		h-31.55v-39.8h31.55V269.96z"/>
</g>
</svg>
